<svg width="17" height="17" viewBox="0 0 17 17" fill="none" xmlns="http://www.w3.org/2000/svg">
<path fill-rule="evenodd" clip-rule="evenodd" d="M8.55192 9.09309C10.0143 9.32084 10.212 10.1938 10.3302 11.0062L10.3499 11.1447L10.3633 11.239L10.4345 11.7171C10.5738 12.63 10.8644 14.5249 10.8644 15.5138C10.8644 15.7609 10.8429 15.9506 10.8035 16.0548C10.7379 16.2154 10.5467 16.3696 10.2827 16.498C9.64397 16.6566 8.97631 16.7424 8.28858 16.7424C8.21576 16.7424 8.14412 16.7389 8.07222 16.7367C7.79428 16.6571 7.58538 16.5241 7.47478 16.3424C7.14082 15.794 7.1207 14.5721 7.11401 13.1442L7.11324 12.9786L7.11054 12.5506C7.09966 11.039 7.09032 9.73563 7.63471 9.26793C7.84555 9.08804 8.14514 9.02849 8.55192 9.09309ZM5.36359 12.3841C5.68049 12.3662 5.88429 13.9387 5.92524 15.1311C5.95394 15.9612 5.86754 16.3027 5.72957 16.4253C5.57336 16.3727 5.41986 16.3158 5.26861 16.254C5.16771 16.069 5.09059 15.7781 5.04159 15.3969C4.89201 14.1993 5.02195 12.4053 5.36359 12.3841ZM13.3084 14.734C13.2886 14.8433 13.2607 14.9276 13.2264 14.9988C12.9554 15.2182 12.6706 15.4196 12.3726 15.6007C12.2777 15.6169 12.1934 15.6056 12.1522 15.5354C11.7572 14.8352 11.609 12.6388 11.9912 12.4476C12.4895 12.2048 13.3822 14.3543 13.3084 14.734ZM8.17062 0.257568C12.6202 0.257568 16.2386 3.81243 16.3384 8.23587L16.3404 8.38877V8.45945C16.3323 10.4576 15.6034 12.2856 14.4026 13.7005C14.359 13.6785 14.2795 13.6063 14.1356 13.3891C13.9866 13.1707 12.7021 11.1764 12.7021 8.89053C12.7021 8.44193 13.343 7.74117 13.9102 7.12608C14.3342 6.66322 14.7358 6.22663 14.8837 5.88349C15.0721 5.44071 14.9403 5.13155 14.7318 5.02675C14.5431 4.93361 14.2599 5.00155 14.0611 5.35772C13.7349 5.93418 13.6304 6.0419 13.1546 6.42759C12.6863 6.81308 11.942 7.20114 11.942 6.69882C11.942 6.42759 12.3566 5.81332 12.5614 5.38276C12.7706 4.94739 12.5451 4.63221 12.1132 4.63221C11.2651 4.63221 10.7021 5.72214 10.7021 6.09975C10.7021 6.47704 10.8835 6.53077 10.8835 6.97015C10.8835 7.41282 9.95301 7.987 9.07644 7.987C8.23251 7.987 7.74312 7.81469 7.54034 7.32921L7.51445 7.26105L7.45583 7.08611C7.2479 6.47303 7.09874 6.0284 6.83908 5.56373C6.70121 5.318 6.48848 5.14765 6.30449 4.99777C6.06403 4.80934 5.93929 4.63585 5.91324 4.50646C5.88924 4.37808 5.87632 4.13616 6.28739 3.57849C6.69758 3.024 6.75508 2.60511 6.54981 2.38897C6.47541 2.31208 6.34856 2.26282 6.18567 2.26282C5.89757 2.26282 5.49723 2.41682 5.08466 2.83984C4.44332 3.50282 4.80741 4.13228 4.80741 4.4086C4.80741 4.68474 4.68992 4.84094 4.30504 5.21662C3.91735 5.59397 3.78355 5.91749 3.73921 7.21773C3.72222 7.88768 3.60527 8.27333 3.50028 8.61528C3.40956 8.915 3.32612 9.19679 3.32162 9.60391C3.31443 10.0551 3.38887 10.3458 3.47574 10.6813C3.56103 10.9914 3.65162 11.3467 3.70966 11.941C3.80197 12.861 3.76988 13.6382 3.60204 14.4325L3.55725 14.6315L3.54678 14.6887C3.51241 14.8283 3.47155 14.9978 3.41633 15.0613C1.34847 13.5796 0 11.1597 0 8.42432C0 3.91434 3.65796 0.257568 8.17062 0.257568Z" fill="#F14635"/>
</svg>
