<svg width="50" height="49" viewBox="0 0 50 49" fill="none" xmlns="http://www.w3.org/2000/svg">
<path d="M35.0625 22.7812H26.75V14.6172C26.75 14.3809 26.5531 14.1875 26.3125 14.1875H23.6875C23.4469 14.1875 23.25 14.3809 23.25 14.6172V22.7812H14.9375C14.6969 22.7812 14.5 22.9746 14.5 23.2109V25.7891C14.5 26.0254 14.6969 26.2188 14.9375 26.2188H23.25V34.3828C23.25 34.6191 23.4469 34.8125 23.6875 34.8125H26.3125C26.5531 34.8125 26.75 34.6191 26.75 34.3828V26.2188H35.0625C35.3031 26.2188 35.5 26.0254 35.5 25.7891V23.2109C35.5 22.9746 35.3031 22.7812 35.0625 22.7812Z" fill="#2E2E2E"/>
<path d="M25 0.4375C11.4703 0.4375 0.5 11.2119 0.5 24.5C0.5 37.7881 11.4703 48.5625 25 48.5625C38.5297 48.5625 49.5 37.7881 49.5 24.5C49.5 11.2119 38.5297 0.4375 25 0.4375ZM25 44.4805C13.7672 44.4805 4.65625 35.5322 4.65625 24.5C4.65625 13.4678 13.7672 4.51953 25 4.51953C36.2328 4.51953 45.3438 13.4678 45.3438 24.5C45.3438 35.5322 36.2328 44.4805 25 44.4805Z" fill="#2E2E2E"/>
</svg>
